<?xml version="1.0" encoding="UTF-8" standalone="no"?><!DOCTYPE svg PUBLIC "-//W3C//DTD SVG 1.1//EN" "http://www.w3.org/Graphics/SVG/1.1/DTD/svg11.dtd"><svg width="100%" height="100%" viewBox="0 0 1024 1024" version="1.1" xmlns="http://www.w3.org/2000/svg" xmlns:xlink="http://www.w3.org/1999/xlink" xml:space="preserve" xmlns:serif="http://www.serif.com/" style="fill-rule:evenodd;clip-rule:evenodd;stroke-linejoin:round;stroke-miterlimit:1.41421;" role="img"><title>Danger Cove logo</title><rect id="Fin-Cutout" serif:id="Fin Cutout" x="0" y="0" width="1024" height="1024" style="fill:none;"/><path d="M186.614,682.614l-103.501,-103.501c27.901,-7.223 55.214,-15.916 81.85,-25.991c-24.579,2.279 -49.478,3.444 -74.648,3.444c-10.15,0 -20.256,-0.19 -30.314,-0.565l-44.001,-44.001l496,-496l496,496l-51.791,51.791c-49.469,40.131 -106.804,70.936 -169.318,89.728c-36.618,11.008 -35.417,13.352 -34.643,16.118c0.775,2.766 11.852,3.328 39.288,0.478c23.132,-2.402 45.971,-5.792 68.476,-10.127l-128.937,128.937c-44.169,7.571 -89.569,11.515 -135.884,11.515c-25.169,0 -50.069,-1.165 -74.648,-3.444c51.155,19.348 104.804,33.599 160.328,42.133l-168.871,168.871l-108.468,-108.468c40.195,-8.476 79.282,-19.974 117.011,-34.244c-24.579,2.279 -49.478,3.444 -74.647,3.444c-25.909,0 -51.531,-1.234 -76.812,-3.648l-133.5,-133.5c24.565,2.276 49.451,3.44 74.607,3.44c62.007,0 122.375,-7.07 180.342,-20.446c46.981,14.058 95.77,23.911 145.931,29.122c27.436,2.849 38.513,2.287 39.288,-0.479c0.774,-2.766 1.975,-5.11 -34.643,-16.118c-76.532,-23.006 -145.303,-64.017 -201.382,-118.103c-2.183,2.169 -4.379,4.326 -6.588,6.47c-76.504,34.848 -159.443,57.993 -246.525,67.144Zm501.375,-173.178c-1.2,-144.987 -104.113,-265.912 -240.815,-294.851c-19.725,-4.176 -40.881,-5.481 -47.174,1.422c-6.293,6.903 2.486,23.527 9.414,39.996c14.85,35.299 25.732,72.671 32.084,111.558c0.922,5.64 22.502,16.439 22.502,16.439c0,0 -17.713,21.219 -17.038,31.678c0.688,10.686 1.038,21.463 1.038,32.322c0,11.228 -0.374,22.369 -1.11,33.412c-46.692,35.591 -99.878,63.091 -157.456,80.399c-36.617,11.008 -35.417,13.352 -34.642,16.118c0.774,2.766 11.851,3.328 39.288,0.478c50.16,-5.21 98.949,-15.063 145.93,-29.122c57.967,13.377 118.336,20.447 180.342,20.447c99.483,0 194.749,-18.198 282.648,-51.444c-24.579,2.279 -49.478,3.444 -74.648,3.444c-47.881,0 -94.786,-4.216 -140.363,-12.296Z"/></svg>
