<?xml version="1.0" encoding="UTF-8" standalone="no"?><!DOCTYPE svg PUBLIC "-//W3C//DTD SVG 1.1//EN" "http://www.w3.org/Graphics/SVG/1.1/DTD/svg11.dtd"><svg width="100%" height="100%" viewBox="0 0 2280 340" version="1.1" xmlns="http://www.w3.org/2000/svg" xmlns:xlink="http://www.w3.org/1999/xlink" xml:space="preserve" xmlns:serif="http://www.serif.com/" style="fill-rule:evenodd;clip-rule:evenodd;stroke-linejoin:round;stroke-miterlimit:2;"><rect id="FastCompany" x="0" y="0" width="2279.42" height="339.159" style="fill:none;"/><clipPath id="_clip1"><rect x="0" y="0" width="2279.42" height="339.159"/></clipPath><g clip-path="url(#_clip1)"><g><path d="M1083.48,92.091c0,45.835 -4.579,187.919 -4.579,187.919c0,27.495 9.157,39.713 35.136,39.713l0,12.217l-102.358,0l0,-12.217c25.966,0 39.714,-12.218 39.714,-39.713l9.169,-232.224c-7.639,-18.339 -15.278,-24.448 -35.135,-25.966l0,-10.687l77.909,0l82.501,216.946l84.031,-216.946l70.27,0l0,10.687c-19.856,0 -30.543,9.17 -30.543,30.557l9.169,224.585c0,33.617 6.109,42.774 33.618,42.774l0,12.217l-117.636,0l0,-12.217c22.905,0 33.618,-7.639 32.074,-42.774c0,0 -4.591,-157.363 -6.108,-184.858l-56.51,155.831c-8.487,21.954 -15.634,44.403 -21.4,67.223l-18.313,1.53c-4.591,-16.809 -16.809,-47.353 -16.809,-47.353c0,0 -47.404,-132.94 -64.2,-177.244Zm-96.249,241.38c-6.109,-1.531 -12.217,-1.531 -18.339,-1.531c-12.218,0 -33.618,6.109 -59.583,6.109c-99.31,0 -172.641,-59.583 -172.641,-169.579c0,-93.188 68.753,-164.989 174.158,-164.989c24.435,0 51.944,4.591 74.862,13.748c4.578,-4.591 6.108,-7.639 10.687,-12.217l9.169,0c-1.53,16.808 -7.639,71.8 -7.639,71.8l-9.169,0c-6.109,-32.074 -22.918,-53.474 -76.392,-53.474c-64.162,0 -122.214,50.413 -122.214,143.614c0,105.418 59.583,151.241 125.275,151.241c42.787,0 68.752,-24.436 85.561,-54.992l10.7,4.591l-24.435,65.679Zm-288.759,-262.768l-10.687,0c-1.53,-29.026 -10.7,-38.195 -33.617,-38.195l-44.305,0l0,239.862c0,39.714 7.639,47.353 33.617,47.353l0,12.217l-114.587,0l0,-12.217c25.978,0 33.617,-7.639 33.617,-48.896l0,-238.319l-44.304,0c-29.027,0 -33.618,7.639 -41.257,38.195l-10.687,0l7.639,-68.752l7.639,1.53c3.048,7.639 9.17,7.639 27.496,7.639l148.192,0c27.509,0 33.618,0 39.727,-9.169l9.169,0l-7.652,68.752Z"/><path d="M374.589,339.58c-21.387,0 -38.196,-3.048 -50.413,-7.64c-12.218,-3.047 -21.387,-7.639 -25.966,-10.687c-6.108,6.109 -10.7,13.748 -10.7,13.748l-9.169,-3.048l7.639,-71.8l10.7,1.53c6.109,33.605 29.026,58.053 76.392,58.053c36.665,0 61.113,-30.544 61.113,-64.161c0,-27.496 -10.7,-41.257 -47.365,-68.753c-12.218,-7.639 -22.918,-13.748 -32.087,-21.387c-33.605,-21.375 -55.005,-45.823 -55.005,-85.549c0,-45.835 38.196,-76.392 88.609,-76.392c29.027,0 47.366,9.17 53.475,12.218l10.687,-12.218l7.639,1.531l-7.639,65.691l-10.687,-1.53c0,-30.544 -18.34,-44.305 -48.896,-44.305c-29.027,0 -50.414,15.279 -50.414,44.305c0,25.978 19.857,42.774 42.774,58.066c12.218,7.639 21.388,13.748 30.544,19.856c53.475,38.183 65.692,62.631 65.692,99.297c0.026,53.461 -41.231,93.175 -106.923,93.175Zm-174.158,-268.877l-12.217,0c0,-27.508 -12.218,-38.195 -36.666,-38.195l-68.752,0l0,120.696l44.304,0c22.918,0 27.509,-12.217 30.557,-32.087l10.687,0l0,85.561l-10.687,0c-3.048,-22.917 -7.639,-32.087 -32.087,-32.087l-42.774,0l0,102.371c0,38.183 9.169,42.774 33.617,42.774l0,12.217l-116.118,0l0,-12.217c29.026,0 33.605,-7.639 33.605,-42.774l0,-224.598c0,-21.387 -9.17,-30.557 -33.605,-30.557l0,-10.687l158.88,0c27.495,0 33.604,-1.53 38.195,-10.7l10.701,0l-7.64,70.283Zm1648.46,18.327l0,183.327c0,39.714 9.144,47.353 33.592,47.353l0,12.218l-180.254,0l0,-12.218c13.761,0 25.966,-4.591 25.966,-13.748c0,-6.122 -1.518,-16.809 -4.591,-27.509l-13.761,-44.305l-100.814,0c-1.544,6.122 -19.857,56.523 -19.857,70.284c0,12.217 13.761,15.278 22.905,15.278l0,12.218l-84.032,0l0,-12.218c15.279,0 27.509,-1.53 38.196,-33.605l77.923,-249.032c-4.592,-10.687 -10.687,-13.748 -21.374,-15.279l0,-10.687l68.752,0l82.475,261.25c7.652,27.496 15.278,41.257 27.509,47.353c18.339,-6.109 22.93,-12.218 22.93,-47.353l0,-219.993c-13.761,-18.339 -15.304,-30.557 -41.269,-30.557l0,-10.687l77.922,0l128.336,218.463l0,-166.519c0,-33.617 -7.626,-41.257 -33.618,-41.257l0,-10.687l171.11,0l0,10.687c-10.687,0 -19.856,4.592 -19.856,15.279c0,7.639 3.06,15.278 6.108,24.448l48.896,105.418l47.366,-102.357c7.626,-13.748 9.17,-21.387 9.17,-29.027c0,-9.169 -6.135,-13.761 -19.857,-13.761l0,-10.687l80.957,0l0,10.687c-19.857,0 -32.1,18.34 -41.244,39.714l-62.644,128.336l0,84.031c0,36.678 9.17,45.835 33.618,45.835l0,12.217l-116.118,0l0,-12.217c24.448,0 33.617,-9.157 33.617,-45.835l0,-71.801l-67.235,-142.084c-12.205,-27.495 -16.796,-33.604 -24.448,-38.196c-15.278,6.109 -19.857,16.809 -19.857,41.257l0,235.272c0,0 1.544,18.339 3.061,39.713l-19.857,1.531l-149.723,-250.55Zm-190.966,-15.279l-42.788,139.036l88.61,0l-45.822,-139.036Z"/><path d="M1468.46,212.787l-22.904,0l0,65.679c0,33.618 9.143,41.257 35.135,41.257l0,12.217l-117.636,0l0,-12.217c24.448,0 33.618,-9.157 33.618,-42.774l0,-215.415c0,-33.605 -9.17,-39.714 -33.618,-39.714l0,-10.687l88.609,0c85.549,0 135.95,25.966 135.95,96.236c0.012,73.331 -61.088,105.418 -119.154,105.418Zm-15.278,-180.279l-7.626,0l0,157.349l13.735,0c50.439,0 76.405,-22.918 76.405,-80.971c0,-58.052 -22.931,-76.378 -82.514,-76.378Zm-517.909,238.319c-58.052,0 -97.779,-41.257 -97.779,-100.827c0,-56.522 41.257,-100.827 97.779,-100.827c55.005,0 96.249,42.774 96.249,100.827c0.013,56.522 -42.774,100.827 -96.249,100.827Zm0,-183.328c-39.713,0 -53.474,38.196 -53.474,82.501c0,41.257 12.23,82.501 53.474,82.501c39.727,0 51.944,-41.257 51.944,-84.031c0.013,-41.244 -15.265,-80.971 -51.944,-80.971Zm-672.197,165.002l0,-10.7c15.279,0 18.34,-4.579 18.34,-9.157c0,-6.122 -1.531,-10.7 -3.061,-15.278c0,0 -3.061,-12.231 -6.109,-21.388l-59.583,0l-6.109,19.857c-1.517,4.591 -3.048,9.17 -3.048,15.279c0,6.121 6.109,10.687 15.279,10.687l0,10.7l-59.584,0l0,-10.7c15.279,0 21.388,-4.579 27.496,-21.375l45.835,-137.505c-1.53,-6.122 -6.121,-10.7 -15.278,-10.7l0,-10.7l48.87,0c16.671,48.937 33.476,97.829 50.414,146.675c7.639,25.965 15.278,33.605 27.496,33.605l0,10.7l-80.958,0Zm-21.4,-148.193l-22.917,74.862l47.365,0l-24.448,-74.862Z"/></g></g></svg>